<svg xmlns="http://www.w3.org/2000/svg" xmlns:xlink="http://www.w3.org/1999/xlink" version="1.1" x="0px" y="0px" viewBox="0 0 100 100" enable-background="new 0 0 100 100" xml:space="preserve">
  <path d="M70.5,60c-5.9,5.9-5.9,15.5,0,21.5c5.9,5.9,15.5,5.9,21.5,0c5.9-5.9,5.9-15.5,0-21.5C86,54.1,76.4,54.1,70.5,60z M89.6,64.6  c0.8,0.8,0.8,2.1,0,2.9l-9.4,9.4c-0.8,0.8-2.1,0.8-2.9,0L77,76.5l-1.1-1.1l-3-3c-0.8-0.8-0.8-2.1,0-2.9c0.8-0.8,2.1-0.8,2.9,0l3,3  l7.9-7.9C87.5,63.8,88.8,63.8,89.6,64.6z M3.6,66.1V24.3c0-5.6,4.6-10.2,10.2-10.2H75c5.6,0,10.2,4.6,10.2,10.2v27.2  c-1.2-0.2-2.5-0.4-3.8-0.4c-5.2,0-9.9,2-13.5,5.4L55.4,44.7l19.4-16.4c1.1-0.9,1.2-2.5,0.3-3.5c-0.9-1.1-2.5-1.2-3.5-0.3l-27.2,23  l-27.2-23c-1.1-0.9-2.6-0.8-3.5,0.3c-0.9,1.1-0.8,2.6,0.3,3.5l19.4,16.4L13.9,63c-1,0.9-1.1,2.5-0.1,3.5c0.5,0.5,1.2,0.8,1.8,0.8  c0.6,0,1.2-0.2,1.7-0.7l19.9-18.7l5.6,4.7c0.5,0.4,1,0.6,1.6,0.6s1.2-0.2,1.6-0.6l5.6-4.7l13.2,12.4c-1.9,3-3,6.6-3,10.4  c0,1.9,0.3,3.8,0.8,5.5H13.7C8.1,76.3,3.6,71.7,3.6,66.1z">
  </path>
</svg>
