<svg xmlns="http://www.w3.org/2000/svg" xmlns:xlink="http://www.w3.org/1999/xlink" version="1.1" x="0px" y="0px" viewbox="0 0 226.8 226.8" enable-background="new 0 0 226.8 226.8" xml:space="preserve">
<path  d="M98.6,101.5c-1.8,0-3.5-0.4-5-1.2c0.1,0.6,0.2,1.2,0.3,1.8c1.8,7.4,8.6,13.2,8.7,13.2l-5.1,6.2c-0.4-0.3-8.9-7.4-11.4-17.5  c-2.4-9.6,1.9-17.1,2.8-18.6c1.8-3.4,5.5-5.7,9.6-5.7c6,0,10.9,4.9,10.9,10.9S104.7,101.5,98.6,101.5z M141.3,90.5  c0-6-4.9-10.9-10.9-10.9c-4.1,0-7.8,2.3-9.6,5.7c-0.9,1.4-5.2,8.9-2.8,18.6c2.5,10,11,17.2,11.4,17.5l5.1-6.2  c-0.1-0.1-6.9-5.8-8.7-13.2c-0.1-0.6-0.2-1.2-0.3-1.8c1.5,0.8,3.2,1.2,5,1.2C136.4,101.5,141.3,96.6,141.3,90.5z M172.8,177.3  L144.2,155h-96c-8.5,0-15.3-6.9-15.3-15.3V68.2c0-8.5,6.9-15.3,15.3-15.3h130.5c8.5,0,15.3,6.9,15.3,15.3v71.4  c0,8.5-6.9,15.3-15.3,15.3h-5.8L172.8,177.3z M48.2,60.9c-4,0-7.3,3.3-7.3,7.3v71.4c0,4,3.3,7.3,7.3,7.3h100.4l16.1,12.2l0-12.2  l13.9,0c4,0,7.3-3.3,7.3-7.3V68.2c0-4-3.3-7.3-7.3-7.3H48.2z">
</path>
</svg>
