<svg xmlns="http://www.w3.org/2000/svg" xmlns:xlink="http://www.w3.org/1999/xlink" version="1.1" x="0px" y="0px" viewBox="0 0 50 50" enable-background="new 0 0 50 50" xml:space="preserve"><g><path fill-rule="evenodd" clip-rule="evenodd" fill="#000000" d="M6.188,1.523h14.557v9.277c-1.946,1.232-3.433,3.074-4.253,5.229   H6.188V1.523L6.188,1.523z M12.185,2.857v4.666H7.573v2.512h4.612v4.662h2.563v-4.662h4.613V7.523h-4.613V2.857H12.185z"></path><path fill-rule="evenodd" clip-rule="evenodd" fill="#000000" d="M26.943,10.125c5.672,0,10.221,4.543,10.221,10.17   c0,5.623-4.549,10.219-10.221,10.219c-5.624,0-10.172-4.596-10.172-10.219C16.771,14.668,21.32,10.125,26.943,10.125L26.943,10.125   z M18.592,29.717c-4.409,0-8.047,3.639-8.047,8.047v10.713h33.267V37.764c0-4.408-3.588-8.047-8.049-8.047h-2.1   c-1.898,1.436-4.256,2.307-6.816,2.307c-2.565,0-4.923-0.871-6.768-2.307H18.592z"></path></g></svg>