<svg xmlns="http://www.w3.org/2000/svg" xmlns:xlink="http://www.w3.org/1999/xlink" version="1.1" x="0px" y="0px" viewBox="0 0 100 100" enable-background="new 0 0 100 100" xml:space="preserve"><path d="M89.6,37.5H47.9c0.1-3.2-0.3-13.2-6.5-19.9c-3.7-4-8.8-6.1-15.1-6.1c-6.3,0-11.3,2-15.1,6.1C6.8,22.4,5.4,29.1,5,33.5  c-0.2,2.1,1.5,3.9,3.6,3.9c1.9,0,3.4-1.4,3.6-3.3c0.3-3.4,1.3-8.4,4.4-11.7c2.3-2.5,5.5-3.7,9.7-3.7c4.2,0,7.4,1.2,9.7,3.7  c4.5,4.8,4.6,12.9,4.6,15h-5.2c-3,0-5.4,2.4-5.4,5.4v40.2c0,3,2.4,5.4,5.4,5.4h54.1c3,0,5.4-2.4,5.4-5.4V42.9  C95,39.9,92.6,37.5,89.6,37.5z M68.5,73.7h-5.4h-1h-5.4l2.6-11.3c-1.9-1.1-3.1-3.2-3.1-5.5c0-3.5,2.9-6.4,6.4-6.4  c3.5,0,6.4,2.9,6.4,6.4c0,2.3-1.3,4.4-3.1,5.5L68.5,73.7z"></path></svg>